General
It's a Wonderful Afterlife - DVDRip - XviD - 1CDRip - [DDR]

Format : AVI
Format/Info : Audio Video Interleave
File size : 700 MiB
Duration : 1h 42mn
Overall bit rate : 951 Kbps
Writing application : VirtualDubMod 1.5.10.2 (build 2540/release)
Writing library : VirtualDubMod build 2540/release

Video
ID : 0
Format : MPEG-4 Visual
Format profile : AdvancedSimple@L5
Format settings, BVOP : Yes
Format settings, QPel : No
Format settings, GMC : No warppoints
Format settings, Matrix : Custom
Codec ID : XVID
Codec ID/Hint : XviD
Duration : 1h 42mn
Bit rate : 814 Kbps
Width : 672 pixels
Height : 288 pixels
Display aspect ratio : 2.35:1
Frame rate : 23.976 fps
Resolution : 24 bits
Colorimetry : 4:2:0
Scan type : Progressive
Bits/(Pixel*Frame) : 0.175
Stream size : 599 MiB (86%)
Writing library : XviD 1.2.1 (UTC 2008-12-04)

Audio
ID : 1
Format : AC-3
Format/Info : Audio Coding 3
Codec ID : 2000
Duration : 1h 42mn
Bit rate mode : Constant
Bit rate : 128 Kbps
Channel(s) : 6 channels
Channel positions : Front: L C R, Surround: L R, LFE
Sampling rate : 48.0 KHz
Stream size : 93.7 MiB (13%)
Alignment : Split accross interleaves
Interleave, duration : 42 ms (1.01 video frame)
Interleave, preload duration : 500 ms

Plot

The film is a comedy which uses satirical and Ealing-style humour. Depicting life amongst the Asian community in Britain, it is set in the London suburb of Southall.

Mrs. Sethi (Shabana Azmi) is a widow living in Southall who wants to marry off her only daughter, for she is alone and unhappy. Her daughter, Roopi, (Goldy Notay) is a little plump and opinionated. Mrs. Sethi finds that all her matchmaking efforts to find a suitor for Roopi are rudely rejected. She avenges this behaviour toward her daughter by killing off the failed dates using her culinary skills. A police hunt begins for a serial murderer using a killer curry 
http://www.imdb.com/title/tt1319716/ 
http://img812.imageshack.us/img812/9826/sawonderfulafterlifedvd.jpg 
http://img709.imageshack.us/img709/9826/sawonderfulafterlifedvd.jpg 
http://img818.imageshack.us/img818/9826/sawonderfulafterlifedvd.jpg 
http://img231.imageshack.us/img231/9826/sawonderfulafterlifedvd.jpg


My Torrents
    
http://thepiratebay.org/user/vicerock/
